<svg width="78" height="78" viewBox="0 0 78 78" fill="none" xmlns="http://www.w3.org/2000/svg">
<rect opacity="0.4" x="11" y="11" width="67" height="67" fill="white"/>
<rect width="67" height="67" fill="#D21146"/>
<path d="M20.196 44C19.9347 44 19.776 43.8787 19.72 43.636L19.104 41.452C19.0667 41.3773 19.02 41.34 18.964 41.34H13.028C12.972 41.34 12.9253 41.3773 12.888 41.452L12.272 43.636C12.216 43.8787 12.0573 44 11.796 44H7.008C6.672 44 6.55067 43.8413 6.644 43.524L12.552 24.736C12.6267 24.512 12.7853 24.4 13.028 24.4H18.964C19.2067 24.4 19.3653 24.512 19.44 24.736L25.348 43.524C25.3667 43.5613 25.376 43.6173 25.376 43.692C25.376 43.8973 25.2453 44 24.984 44H20.196ZM14.12 37.14C14.1013 37.252 14.1387 37.308 14.232 37.308H17.732C17.844 37.308 17.8813 37.252 17.844 37.14L16.052 30.868C16.0333 30.812 16.0053 30.784 15.968 30.784C15.9307 30.784 15.9027 30.812 15.884 30.868L14.12 37.14ZM33.7633 44.224C32.2326 44.224 30.8793 43.9253 29.7033 43.328C28.546 42.7307 27.6406 41.8907 26.9873 40.808C26.3526 39.7067 26.0353 38.4373 26.0353 37V31.344C26.0353 29.9253 26.3526 28.6747 26.9873 27.592C27.6406 26.5093 28.546 25.6693 29.7033 25.072C30.8793 24.4747 32.2326 24.176 33.7633 24.176C35.294 24.176 36.638 24.456 37.7953 25.016C38.9713 25.576 39.8766 26.3693 40.5113 27.396C41.1646 28.404 41.4913 29.58 41.4913 30.924C41.4913 31.092 41.3513 31.1947 41.0713 31.232L36.6473 31.512H36.5633C36.3393 31.512 36.2273 31.4093 36.2273 31.204C36.2273 30.4387 36.0033 29.832 35.5553 29.384C35.1073 28.9173 34.51 28.684 33.7633 28.684C33.0166 28.684 32.4193 28.9173 31.9713 29.384C31.5233 29.832 31.2993 30.4387 31.2993 31.204V37.224C31.2993 37.9707 31.5233 38.5773 31.9713 39.044C32.4193 39.492 33.0166 39.716 33.7633 39.716C34.51 39.716 35.1073 39.492 35.5553 39.044C36.0033 38.5773 36.2273 37.9707 36.2273 37.224C36.2273 37.112 36.2646 37.028 36.3393 36.972C36.414 36.916 36.5166 36.8973 36.6473 36.916L41.0713 37.14C41.3513 37.1587 41.4913 37.252 41.4913 37.42C41.4913 38.764 41.1646 39.9493 40.5113 40.976C39.8766 42.0027 38.9713 42.8053 37.7953 43.384C36.638 43.944 35.294 44.224 33.7633 44.224ZM50.7698 44.224C49.2018 44.224 47.8298 43.972 46.6538 43.468C45.4778 42.9453 44.5631 42.208 43.9098 41.256C43.2751 40.304 42.9578 39.2027 42.9578 37.952V37.56C42.9578 37.4293 42.9951 37.3267 43.0698 37.252C43.1445 37.1773 43.2471 37.14 43.3778 37.14H47.7178C47.8485 37.14 47.9511 37.1773 48.0258 37.252C48.1005 37.3267 48.1378 37.4293 48.1378 37.56V37.728C48.1378 38.2507 48.4085 38.7173 48.9498 39.128C49.5098 39.52 50.2471 39.716 51.1618 39.716C51.8525 39.716 52.3471 39.576 52.6458 39.296C52.9445 38.9973 53.0938 38.6707 53.0938 38.316C53.0938 37.9053 52.9071 37.5973 52.5338 37.392C52.1605 37.1867 51.4791 36.9347 50.4898 36.636L49.6778 36.412C47.8298 35.852 46.2805 35.1053 45.0298 34.172C43.7791 33.2387 43.1538 31.8853 43.1538 30.112C43.1538 28.936 43.4711 27.9 44.1058 27.004C44.7405 26.0893 45.6085 25.3893 46.7098 24.904C47.8298 24.4187 49.0805 24.176 50.4618 24.176C51.9178 24.176 53.2338 24.4467 54.4098 24.988C55.6045 25.5293 56.5378 26.2947 57.2098 27.284C57.9005 28.2733 58.2458 29.4027 58.2458 30.672V30.924C58.2458 31.0547 58.2085 31.1573 58.1338 31.232C58.0591 31.3067 57.9565 31.344 57.8258 31.344H53.4858C53.3551 31.344 53.2525 31.3067 53.1778 31.232C53.1031 31.1573 53.0658 31.0547 53.0658 30.924V30.896C53.0658 30.336 52.8138 29.832 52.3098 29.384C51.8058 28.9173 51.1245 28.684 50.2658 28.684C49.6685 28.684 49.1925 28.8053 48.8378 29.048C48.5018 29.2907 48.3338 29.6267 48.3338 30.056C48.3338 30.392 48.4551 30.6813 48.6978 30.924C48.9591 31.148 49.3511 31.372 49.8738 31.596C50.3965 31.8013 51.1991 32.072 52.2818 32.408C52.4311 32.464 53.0845 32.6693 54.2418 33.024C55.4178 33.36 56.3978 33.9853 57.1818 34.9C57.9658 35.796 58.3578 36.888 58.3578 38.176C58.3578 39.4267 58.0405 40.5093 57.4058 41.424C56.7711 42.32 55.8845 43.0107 54.7458 43.496C53.6071 43.9813 52.2818 44.224 50.7698 44.224Z" fill="white"/>
</svg>
