<svg width="211" height="212" viewBox="0 0 211 212" fill="none" xmlns="http://www.w3.org/2000/svg">
<path d="M155.282 102.5C154.082 103.1 154.082 103.7 155.282 104.3C174.282 114.1 183.782 130.4 183.782 153.2C183.782 172.6 177.182 187.3 163.982 197.3C150.782 207.1 133.482 212 112.082 212H34.3824C33.3824 212 32.4824 211.7 31.6824 211.1C31.0824 210.3 30.7824 209.4 30.7824 208.4V5.59999C30.7824 4.59999 31.0824 3.79999 31.6824 3.19999C32.4824 2.39999 33.3824 1.99999 34.3824 1.99999H109.682C157.082 1.99999 180.782 21.2 180.782 59.6C180.782 79.6 172.282 93.9 155.282 102.5ZM74.5824 38.3C73.5824 38.3 73.0824 38.8 73.0824 39.8V86.6C73.0824 87.6 73.5824 88.1 74.5824 88.1H109.682C119.082 88.1 126.382 85.9 131.582 81.5C136.782 77.1 139.382 71.1 139.382 63.5C139.382 55.7 136.782 49.6 131.582 45.2C126.382 40.6 119.082 38.3 109.682 38.3H74.5824ZM112.082 175.4C121.282 175.4 128.482 173.1 133.682 168.5C138.882 163.7 141.482 157.2 141.482 149C141.482 140.8 138.882 134.4 133.682 129.8C128.482 125 121.182 122.6 111.782 122.6H74.5824C73.5824 122.6 73.0824 123.1 73.0824 124.1V173.9C73.0824 174.9 73.5824 175.4 74.5824 175.4H112.082Z" fill="#D21146"/>
</svg>
