<svg width="1572" height="651" viewBox="0 0 1572 651" fill="none" xmlns="http://www.w3.org/2000/svg">
<g opacity="0.2">
<ellipse cx="1567.29" cy="646.789" rx="4.71429" ry="4.21053" transform="rotate(-180 1567.29 646.789)" fill="white"/>
<ellipse cx="1567.29" cy="629.947" rx="4.71429" ry="4.21053" transform="rotate(-180 1567.29 629.947)" fill="white"/>
<ellipse cx="1567.29" cy="613.105" rx="4.71429" ry="4.21053" transform="rotate(-180 1567.29 613.105)" fill="white"/>
<ellipse cx="1567.29" cy="596.263" rx="4.71429" ry="4.21053" transform="rotate(-180 1567.29 596.263)" fill="white"/>
<ellipse cx="1567.29" cy="579.421" rx="4.71429" ry="4.21053" transform="rotate(-180 1567.29 579.421)" fill="white"/>
<ellipse cx="1567.29" cy="562.579" rx="4.71429" ry="4.21053" transform="rotate(-180 1567.29 562.579)" fill="white"/>
<ellipse cx="1567.29" cy="545.737" rx="4.71429" ry="4.21053" transform="rotate(-180 1567.29 545.737)" fill="white"/>
<ellipse cx="1567.29" cy="528.895" rx="4.71429" ry="4.21053" transform="rotate(-180 1567.29 528.895)" fill="white"/>
<ellipse cx="1567.29" cy="512.053" rx="4.71429" ry="4.21053" transform="rotate(-180 1567.29 512.053)" fill="white"/>
<ellipse cx="1567.29" cy="495.21" rx="4.71429" ry="4.21053" transform="rotate(-180 1567.29 495.21)" fill="white"/>
<ellipse cx="1548.43" cy="646.789" rx="4.71429" ry="4.21053" transform="rotate(-180 1548.43 646.789)" fill="white"/>
<ellipse cx="1548.43" cy="629.947" rx="4.71429" ry="4.21053" transform="rotate(-180 1548.43 629.947)" fill="white"/>
<ellipse cx="1548.43" cy="613.105" rx="4.71429" ry="4.21053" transform="rotate(-180 1548.43 613.105)" fill="white"/>
<ellipse cx="1548.43" cy="596.263" rx="4.71429" ry="4.21053" transform="rotate(-180 1548.43 596.263)" fill="white"/>
<ellipse cx="1548.43" cy="579.421" rx="4.71429" ry="4.21053" transform="rotate(-180 1548.43 579.421)" fill="white"/>
<ellipse cx="1548.43" cy="562.579" rx="4.71429" ry="4.21053" transform="rotate(-180 1548.43 562.579)" fill="white"/>
<ellipse cx="1548.43" cy="545.737" rx="4.71429" ry="4.21053" transform="rotate(-180 1548.43 545.737)" fill="white"/>
<ellipse cx="1548.43" cy="528.895" rx="4.71429" ry="4.21053" transform="rotate(-180 1548.43 528.895)" fill="white"/>
<ellipse cx="1548.43" cy="512.053" rx="4.71429" ry="4.21053" transform="rotate(-180 1548.43 512.053)" fill="white"/>
<ellipse cx="1548.43" cy="495.21" rx="4.71429" ry="4.21053" transform="rotate(-180 1548.43 495.21)" fill="white"/>
<ellipse cx="1529.57" cy="646.789" rx="4.71428" ry="4.21053" transform="rotate(-180 1529.57 646.789)" fill="white"/>
<ellipse cx="1529.57" cy="629.947" rx="4.71428" ry="4.21053" transform="rotate(-180 1529.57 629.947)" fill="white"/>
<ellipse cx="1529.57" cy="613.105" rx="4.71428" ry="4.21053" transform="rotate(-180 1529.57 613.105)" fill="white"/>
<ellipse cx="1529.57" cy="596.263" rx="4.71428" ry="4.21053" transform="rotate(-180 1529.57 596.263)" fill="white"/>
<ellipse cx="1529.57" cy="579.421" rx="4.71428" ry="4.21053" transform="rotate(-180 1529.57 579.421)" fill="white"/>
<ellipse cx="1529.57" cy="562.579" rx="4.71428" ry="4.21053" transform="rotate(-180 1529.57 562.579)" fill="white"/>
<ellipse cx="1529.57" cy="545.737" rx="4.71428" ry="4.21053" transform="rotate(-180 1529.57 545.737)" fill="white"/>
<ellipse cx="1529.57" cy="528.895" rx="4.71428" ry="4.21053" transform="rotate(-180 1529.57 528.895)" fill="white"/>
<ellipse cx="1529.57" cy="512.053" rx="4.71428" ry="4.21053" transform="rotate(-180 1529.57 512.053)" fill="white"/>
<ellipse cx="1529.57" cy="495.21" rx="4.71428" ry="4.21053" transform="rotate(-180 1529.57 495.21)" fill="white"/>
<ellipse cx="1510.71" cy="646.789" rx="4.71428" ry="4.21053" transform="rotate(-180 1510.71 646.789)" fill="white"/>
<ellipse cx="1510.71" cy="629.947" rx="4.71428" ry="4.21053" transform="rotate(-180 1510.71 629.947)" fill="white"/>
<ellipse cx="1510.71" cy="613.105" rx="4.71428" ry="4.21053" transform="rotate(-180 1510.71 613.105)" fill="white"/>
<ellipse cx="1510.71" cy="596.263" rx="4.71428" ry="4.21053" transform="rotate(-180 1510.71 596.263)" fill="white"/>
<ellipse cx="1510.71" cy="579.421" rx="4.71428" ry="4.21053" transform="rotate(-180 1510.71 579.421)" fill="white"/>
<ellipse cx="1510.71" cy="562.579" rx="4.71428" ry="4.21053" transform="rotate(-180 1510.71 562.579)" fill="white"/>
<ellipse cx="1510.71" cy="545.737" rx="4.71428" ry="4.21053" transform="rotate(-180 1510.71 545.737)" fill="white"/>
<ellipse cx="1510.71" cy="528.895" rx="4.71428" ry="4.21053" transform="rotate(-180 1510.71 528.895)" fill="white"/>
<ellipse cx="1510.71" cy="512.053" rx="4.71428" ry="4.21053" transform="rotate(-180 1510.71 512.053)" fill="white"/>
<ellipse cx="1510.71" cy="495.21" rx="4.71428" ry="4.21053" transform="rotate(-180 1510.71 495.21)" fill="white"/>
<ellipse cx="1491.86" cy="646.789" rx="4.71428" ry="4.21053" transform="rotate(-180 1491.86 646.789)" fill="white"/>
<ellipse cx="1491.86" cy="629.947" rx="4.71428" ry="4.21053" transform="rotate(-180 1491.86 629.947)" fill="white"/>
<ellipse cx="1491.86" cy="613.105" rx="4.71428" ry="4.21053" transform="rotate(-180 1491.86 613.105)" fill="white"/>
<ellipse cx="1491.86" cy="596.263" rx="4.71428" ry="4.21053" transform="rotate(-180 1491.86 596.263)" fill="white"/>
<ellipse cx="1491.86" cy="579.421" rx="4.71428" ry="4.21053" transform="rotate(-180 1491.86 579.421)" fill="white"/>
<ellipse cx="1491.86" cy="562.579" rx="4.71428" ry="4.21053" transform="rotate(-180 1491.86 562.579)" fill="white"/>
<ellipse cx="1491.86" cy="545.737" rx="4.71428" ry="4.21053" transform="rotate(-180 1491.86 545.737)" fill="white"/>
<ellipse cx="1491.86" cy="528.895" rx="4.71428" ry="4.21053" transform="rotate(-180 1491.86 528.895)" fill="white"/>
<ellipse cx="1491.86" cy="512.053" rx="4.71428" ry="4.21053" transform="rotate(-180 1491.86 512.053)" fill="white"/>
<ellipse cx="1491.86" cy="495.21" rx="4.71428" ry="4.21053" transform="rotate(-180 1491.86 495.21)" fill="white"/>
<ellipse cx="1473" cy="646.789" rx="4.71429" ry="4.21053" transform="rotate(-180 1473 646.789)" fill="white"/>
<ellipse cx="1473" cy="629.947" rx="4.71429" ry="4.21053" transform="rotate(-180 1473 629.947)" fill="white"/>
<ellipse cx="1473" cy="613.105" rx="4.71429" ry="4.21053" transform="rotate(-180 1473 613.105)" fill="white"/>
<ellipse cx="1473" cy="596.263" rx="4.71429" ry="4.21053" transform="rotate(-180 1473 596.263)" fill="white"/>
<ellipse cx="1473" cy="579.421" rx="4.71429" ry="4.21053" transform="rotate(-180 1473 579.421)" fill="white"/>
<ellipse cx="1473" cy="562.579" rx="4.71429" ry="4.21053" transform="rotate(-180 1473 562.579)" fill="white"/>
<ellipse cx="1473" cy="545.737" rx="4.71429" ry="4.21053" transform="rotate(-180 1473 545.737)" fill="white"/>
<ellipse cx="1473" cy="528.895" rx="4.71429" ry="4.21053" transform="rotate(-180 1473 528.895)" fill="white"/>
<ellipse cx="1473" cy="512.053" rx="4.71429" ry="4.21053" transform="rotate(-180 1473 512.053)" fill="white"/>
<ellipse cx="1473" cy="495.21" rx="4.71429" ry="4.21053" transform="rotate(-180 1473 495.21)" fill="white"/>
<ellipse cx="1454.14" cy="646.789" rx="4.71428" ry="4.21053" transform="rotate(-180 1454.14 646.789)" fill="white"/>
<ellipse cx="1454.14" cy="629.947" rx="4.71428" ry="4.21053" transform="rotate(-180 1454.14 629.947)" fill="white"/>
<ellipse cx="1454.14" cy="613.105" rx="4.71428" ry="4.21053" transform="rotate(-180 1454.14 613.105)" fill="white"/>
<ellipse cx="1454.14" cy="596.263" rx="4.71428" ry="4.21053" transform="rotate(-180 1454.14 596.263)" fill="white"/>
<ellipse cx="1454.14" cy="579.421" rx="4.71428" ry="4.21053" transform="rotate(-180 1454.14 579.421)" fill="white"/>
<ellipse cx="1454.14" cy="562.579" rx="4.71428" ry="4.21053" transform="rotate(-180 1454.14 562.579)" fill="white"/>
<ellipse cx="1454.14" cy="545.737" rx="4.71428" ry="4.21053" transform="rotate(-180 1454.14 545.737)" fill="white"/>
<ellipse cx="1454.14" cy="528.895" rx="4.71428" ry="4.21053" transform="rotate(-180 1454.14 528.895)" fill="white"/>
<ellipse cx="1454.14" cy="512.053" rx="4.71428" ry="4.21053" transform="rotate(-180 1454.14 512.053)" fill="white"/>
<ellipse cx="1454.14" cy="495.21" rx="4.71428" ry="4.21053" transform="rotate(-180 1454.14 495.21)" fill="white"/>
<ellipse cx="1435.29" cy="646.789" rx="4.71429" ry="4.21053" transform="rotate(-180 1435.29 646.789)" fill="white"/>
<ellipse cx="1435.29" cy="629.947" rx="4.71429" ry="4.21053" transform="rotate(-180 1435.29 629.947)" fill="white"/>
<ellipse cx="1435.29" cy="613.105" rx="4.71429" ry="4.21053" transform="rotate(-180 1435.29 613.105)" fill="white"/>
<ellipse cx="1435.29" cy="596.263" rx="4.71429" ry="4.21053" transform="rotate(-180 1435.29 596.263)" fill="white"/>
<ellipse cx="1435.29" cy="579.421" rx="4.71429" ry="4.21053" transform="rotate(-180 1435.29 579.421)" fill="white"/>
<ellipse cx="1435.29" cy="562.579" rx="4.71429" ry="4.21053" transform="rotate(-180 1435.29 562.579)" fill="white"/>
<ellipse cx="1435.29" cy="545.737" rx="4.71429" ry="4.21053" transform="rotate(-180 1435.29 545.737)" fill="white"/>
<ellipse cx="1435.29" cy="528.895" rx="4.71429" ry="4.21053" transform="rotate(-180 1435.29 528.895)" fill="white"/>
<ellipse cx="1435.29" cy="512.053" rx="4.71429" ry="4.21053" transform="rotate(-180 1435.29 512.053)" fill="white"/>
<ellipse cx="1435.29" cy="495.21" rx="4.71429" ry="4.21053" transform="rotate(-180 1435.29 495.21)" fill="white"/>
<ellipse cx="1416.43" cy="646.789" rx="4.71429" ry="4.21053" transform="rotate(-180 1416.43 646.789)" fill="white"/>
<ellipse cx="1416.43" cy="629.947" rx="4.71429" ry="4.21053" transform="rotate(-180 1416.43 629.947)" fill="white"/>
<ellipse cx="1416.43" cy="613.105" rx="4.71429" ry="4.21053" transform="rotate(-180 1416.43 613.105)" fill="white"/>
<ellipse cx="1416.43" cy="596.263" rx="4.71429" ry="4.21053" transform="rotate(-180 1416.43 596.263)" fill="white"/>
<ellipse cx="1416.43" cy="579.421" rx="4.71429" ry="4.21053" transform="rotate(-180 1416.43 579.421)" fill="white"/>
<ellipse cx="1416.43" cy="562.579" rx="4.71429" ry="4.21053" transform="rotate(-180 1416.43 562.579)" fill="white"/>
<ellipse cx="1416.43" cy="545.737" rx="4.71429" ry="4.21053" transform="rotate(-180 1416.43 545.737)" fill="white"/>
<ellipse cx="1416.43" cy="528.895" rx="4.71429" ry="4.21053" transform="rotate(-180 1416.43 528.895)" fill="white"/>
<ellipse cx="1416.43" cy="512.053" rx="4.71429" ry="4.21053" transform="rotate(-180 1416.43 512.053)" fill="white"/>
<ellipse cx="1416.43" cy="495.21" rx="4.71429" ry="4.21053" transform="rotate(-180 1416.43 495.21)" fill="white"/>
<ellipse cx="1397.57" cy="646.789" rx="4.71429" ry="4.21053" transform="rotate(-180 1397.57 646.789)" fill="white"/>
<ellipse cx="1397.57" cy="629.947" rx="4.71429" ry="4.21053" transform="rotate(-180 1397.57 629.947)" fill="white"/>
<ellipse cx="1397.57" cy="613.105" rx="4.71429" ry="4.21053" transform="rotate(-180 1397.57 613.105)" fill="white"/>
<ellipse cx="1397.57" cy="596.263" rx="4.71429" ry="4.21053" transform="rotate(-180 1397.57 596.263)" fill="white"/>
<ellipse cx="1397.57" cy="579.421" rx="4.71429" ry="4.21053" transform="rotate(-180 1397.57 579.421)" fill="white"/>
<ellipse cx="1397.57" cy="562.579" rx="4.71429" ry="4.21053" transform="rotate(-180 1397.57 562.579)" fill="white"/>
<ellipse cx="1397.57" cy="545.737" rx="4.71429" ry="4.21053" transform="rotate(-180 1397.57 545.737)" fill="white"/>
<ellipse cx="1397.57" cy="528.895" rx="4.71429" ry="4.21053" transform="rotate(-180 1397.57 528.895)" fill="white"/>
<ellipse cx="1397.57" cy="512.053" rx="4.71429" ry="4.21053" transform="rotate(-180 1397.57 512.053)" fill="white"/>
<ellipse cx="1397.57" cy="495.21" rx="4.71429" ry="4.21053" transform="rotate(-180 1397.57 495.21)" fill="white"/>
<ellipse cx="1378.71" cy="646.789" rx="4.71429" ry="4.21053" transform="rotate(-180 1378.71 646.789)" fill="white"/>
<ellipse cx="1378.71" cy="629.947" rx="4.71429" ry="4.21053" transform="rotate(-180 1378.71 629.947)" fill="white"/>
<ellipse cx="1378.71" cy="613.105" rx="4.71429" ry="4.21053" transform="rotate(-180 1378.71 613.105)" fill="white"/>
<ellipse cx="1378.71" cy="596.263" rx="4.71429" ry="4.21053" transform="rotate(-180 1378.71 596.263)" fill="white"/>
<ellipse cx="1378.71" cy="579.421" rx="4.71429" ry="4.21053" transform="rotate(-180 1378.71 579.421)" fill="white"/>
<ellipse cx="1378.71" cy="562.579" rx="4.71429" ry="4.21053" transform="rotate(-180 1378.71 562.579)" fill="white"/>
<ellipse cx="1378.71" cy="545.737" rx="4.71429" ry="4.21053" transform="rotate(-180 1378.71 545.737)" fill="white"/>
<ellipse cx="1378.71" cy="528.895" rx="4.71429" ry="4.21053" transform="rotate(-180 1378.71 528.895)" fill="white"/>
<ellipse cx="1378.71" cy="512.053" rx="4.71429" ry="4.21053" transform="rotate(-180 1378.71 512.053)" fill="white"/>
<ellipse cx="1378.71" cy="495.21" rx="4.71429" ry="4.21053" transform="rotate(-180 1378.71 495.21)" fill="white"/>
<ellipse cx="1359.86" cy="646.789" rx="4.71429" ry="4.21053" transform="rotate(-180 1359.86 646.789)" fill="white"/>
<ellipse cx="1359.86" cy="629.947" rx="4.71429" ry="4.21053" transform="rotate(-180 1359.86 629.947)" fill="white"/>
<ellipse cx="1359.86" cy="613.105" rx="4.71429" ry="4.21053" transform="rotate(-180 1359.86 613.105)" fill="white"/>
<ellipse cx="1359.86" cy="596.263" rx="4.71429" ry="4.21053" transform="rotate(-180 1359.86 596.263)" fill="white"/>
<ellipse cx="1359.86" cy="579.421" rx="4.71429" ry="4.21053" transform="rotate(-180 1359.86 579.421)" fill="white"/>
<ellipse cx="1359.86" cy="562.579" rx="4.71429" ry="4.21053" transform="rotate(-180 1359.86 562.579)" fill="white"/>
<ellipse cx="1359.86" cy="545.737" rx="4.71429" ry="4.21053" transform="rotate(-180 1359.86 545.737)" fill="white"/>
<ellipse cx="1359.86" cy="528.895" rx="4.71429" ry="4.21053" transform="rotate(-180 1359.86 528.895)" fill="white"/>
<ellipse cx="1359.86" cy="512.053" rx="4.71429" ry="4.21053" transform="rotate(-180 1359.86 512.053)" fill="white"/>
<ellipse cx="1359.86" cy="495.21" rx="4.71429" ry="4.21053" transform="rotate(-180 1359.86 495.21)" fill="white"/>
<ellipse cx="1341" cy="646.789" rx="4.71428" ry="4.21053" transform="rotate(-180 1341 646.789)" fill="white"/>
<ellipse cx="1341" cy="629.947" rx="4.71428" ry="4.21053" transform="rotate(-180 1341 629.947)" fill="white"/>
<ellipse cx="1341" cy="613.105" rx="4.71428" ry="4.21053" transform="rotate(-180 1341 613.105)" fill="white"/>
<ellipse cx="1341" cy="596.263" rx="4.71428" ry="4.21053" transform="rotate(-180 1341 596.263)" fill="white"/>
<ellipse cx="1341" cy="579.421" rx="4.71428" ry="4.21053" transform="rotate(-180 1341 579.421)" fill="white"/>
<ellipse cx="1341" cy="562.579" rx="4.71428" ry="4.21053" transform="rotate(-180 1341 562.579)" fill="white"/>
<ellipse cx="1341" cy="545.737" rx="4.71428" ry="4.21053" transform="rotate(-180 1341 545.737)" fill="white"/>
<ellipse cx="1341" cy="528.895" rx="4.71428" ry="4.21053" transform="rotate(-180 1341 528.895)" fill="white"/>
<ellipse cx="1341" cy="512.053" rx="4.71428" ry="4.21053" transform="rotate(-180 1341 512.053)" fill="white"/>
<ellipse cx="1341" cy="495.21" rx="4.71428" ry="4.21053" transform="rotate(-180 1341 495.21)" fill="white"/>
<ellipse cx="1322.14" cy="646.789" rx="4.71429" ry="4.21053" transform="rotate(-180 1322.14 646.789)" fill="white"/>
<ellipse cx="1322.14" cy="629.947" rx="4.71429" ry="4.21053" transform="rotate(-180 1322.14 629.947)" fill="white"/>
<ellipse cx="1322.14" cy="613.105" rx="4.71429" ry="4.21053" transform="rotate(-180 1322.14 613.105)" fill="white"/>
<ellipse cx="1322.14" cy="596.263" rx="4.71429" ry="4.21053" transform="rotate(-180 1322.14 596.263)" fill="white"/>
<ellipse cx="1322.14" cy="579.421" rx="4.71429" ry="4.21053" transform="rotate(-180 1322.14 579.421)" fill="white"/>
<ellipse cx="1322.14" cy="562.579" rx="4.71429" ry="4.21053" transform="rotate(-180 1322.14 562.579)" fill="white"/>
<ellipse cx="1322.14" cy="545.737" rx="4.71429" ry="4.21053" transform="rotate(-180 1322.14 545.737)" fill="white"/>
<ellipse cx="1322.14" cy="528.895" rx="4.71429" ry="4.21053" transform="rotate(-180 1322.14 528.895)" fill="white"/>
<ellipse cx="1322.14" cy="512.053" rx="4.71429" ry="4.21053" transform="rotate(-180 1322.14 512.053)" fill="white"/>
<ellipse cx="1322.14" cy="495.21" rx="4.71429" ry="4.21053" transform="rotate(-180 1322.14 495.21)" fill="white"/>
<ellipse cx="1303.29" cy="646.789" rx="4.71428" ry="4.21053" transform="rotate(-180 1303.29 646.789)" fill="white"/>
<ellipse cx="1303.29" cy="629.947" rx="4.71428" ry="4.21053" transform="rotate(-180 1303.29 629.947)" fill="white"/>
<ellipse cx="1303.29" cy="613.105" rx="4.71428" ry="4.21053" transform="rotate(-180 1303.29 613.105)" fill="white"/>
<ellipse cx="1303.29" cy="596.263" rx="4.71428" ry="4.21053" transform="rotate(-180 1303.29 596.263)" fill="white"/>
<ellipse cx="1303.29" cy="579.421" rx="4.71428" ry="4.21053" transform="rotate(-180 1303.29 579.421)" fill="white"/>
<ellipse cx="1303.29" cy="562.579" rx="4.71428" ry="4.21053" transform="rotate(-180 1303.29 562.579)" fill="white"/>
<ellipse cx="1303.29" cy="545.737" rx="4.71428" ry="4.21053" transform="rotate(-180 1303.29 545.737)" fill="white"/>
<ellipse cx="1303.29" cy="528.895" rx="4.71428" ry="4.21053" transform="rotate(-180 1303.29 528.895)" fill="white"/>
<ellipse cx="1303.29" cy="512.053" rx="4.71428" ry="4.21053" transform="rotate(-180 1303.29 512.053)" fill="white"/>
<ellipse cx="1303.29" cy="495.21" rx="4.71428" ry="4.21053" transform="rotate(-180 1303.29 495.21)" fill="white"/>
<ellipse cx="1284.43" cy="646.789" rx="4.71428" ry="4.21053" transform="rotate(-180 1284.43 646.789)" fill="white"/>
<ellipse cx="1284.43" cy="629.947" rx="4.71428" ry="4.21053" transform="rotate(-180 1284.43 629.947)" fill="white"/>
<ellipse cx="1284.43" cy="613.105" rx="4.71428" ry="4.21053" transform="rotate(-180 1284.43 613.105)" fill="white"/>
<ellipse cx="1284.43" cy="596.263" rx="4.71428" ry="4.21053" transform="rotate(-180 1284.43 596.263)" fill="white"/>
<ellipse cx="1284.43" cy="579.421" rx="4.71428" ry="4.21053" transform="rotate(-180 1284.43 579.421)" fill="white"/>
<ellipse cx="1284.43" cy="562.579" rx="4.71428" ry="4.21053" transform="rotate(-180 1284.43 562.579)" fill="white"/>
<ellipse cx="1284.43" cy="545.737" rx="4.71428" ry="4.21053" transform="rotate(-180 1284.43 545.737)" fill="white"/>
<ellipse cx="1284.43" cy="528.895" rx="4.71428" ry="4.21053" transform="rotate(-180 1284.43 528.895)" fill="white"/>
<ellipse cx="1284.43" cy="512.053" rx="4.71428" ry="4.21053" transform="rotate(-180 1284.43 512.053)" fill="white"/>
<ellipse cx="1284.43" cy="495.21" rx="4.71428" ry="4.21053" transform="rotate(-180 1284.43 495.21)" fill="white"/>
<ellipse cx="1265.57" cy="646.789" rx="4.71428" ry="4.21053" transform="rotate(-180 1265.57 646.789)" fill="white"/>
<ellipse cx="1265.57" cy="629.947" rx="4.71428" ry="4.21053" transform="rotate(-180 1265.57 629.947)" fill="white"/>
<ellipse cx="1265.57" cy="613.105" rx="4.71428" ry="4.21053" transform="rotate(-180 1265.57 613.105)" fill="white"/>
<ellipse cx="1265.57" cy="596.263" rx="4.71428" ry="4.21053" transform="rotate(-180 1265.57 596.263)" fill="white"/>
<ellipse cx="1265.57" cy="579.421" rx="4.71428" ry="4.21053" transform="rotate(-180 1265.57 579.421)" fill="white"/>
<ellipse cx="1265.57" cy="562.579" rx="4.71428" ry="4.21053" transform="rotate(-180 1265.57 562.579)" fill="white"/>
<ellipse cx="1265.57" cy="545.737" rx="4.71428" ry="4.21053" transform="rotate(-180 1265.57 545.737)" fill="white"/>
<ellipse cx="1265.57" cy="528.895" rx="4.71428" ry="4.21053" transform="rotate(-180 1265.57 528.895)" fill="white"/>
<ellipse cx="1265.57" cy="512.053" rx="4.71428" ry="4.21053" transform="rotate(-180 1265.57 512.053)" fill="white"/>
<ellipse cx="1265.57" cy="495.21" rx="4.71428" ry="4.21053" transform="rotate(-180 1265.57 495.21)" fill="white"/>
<ellipse cx="1246.71" cy="646.789" rx="4.71428" ry="4.21053" transform="rotate(-180 1246.71 646.789)" fill="white"/>
<ellipse cx="1246.71" cy="629.947" rx="4.71428" ry="4.21053" transform="rotate(-180 1246.71 629.947)" fill="white"/>
<ellipse cx="1246.71" cy="613.105" rx="4.71428" ry="4.21053" transform="rotate(-180 1246.71 613.105)" fill="white"/>
<ellipse cx="1246.71" cy="596.263" rx="4.71428" ry="4.21053" transform="rotate(-180 1246.71 596.263)" fill="white"/>
<ellipse cx="1246.71" cy="579.421" rx="4.71428" ry="4.21053" transform="rotate(-180 1246.71 579.421)" fill="white"/>
<ellipse cx="1246.71" cy="562.579" rx="4.71428" ry="4.21053" transform="rotate(-180 1246.71 562.579)" fill="white"/>
<ellipse cx="1246.71" cy="545.737" rx="4.71428" ry="4.21053" transform="rotate(-180 1246.71 545.737)" fill="white"/>
<ellipse cx="1246.71" cy="528.895" rx="4.71428" ry="4.21053" transform="rotate(-180 1246.71 528.895)" fill="white"/>
<ellipse cx="1246.71" cy="512.053" rx="4.71428" ry="4.21053" transform="rotate(-180 1246.71 512.053)" fill="white"/>
<ellipse cx="1246.71" cy="495.21" rx="4.71428" ry="4.21053" transform="rotate(-180 1246.71 495.21)" fill="white"/>
</g>
<g opacity="0.2">
<ellipse cx="155.789" cy="4.71429" rx="4.71429" ry="4.21053" transform="rotate(90 155.789 4.71429)" fill="white"/>
<ellipse cx="138.947" cy="4.71429" rx="4.71429" ry="4.21053" transform="rotate(90 138.947 4.71429)" fill="white"/>
<ellipse cx="122.105" cy="4.71429" rx="4.71429" ry="4.21053" transform="rotate(90 122.105 4.71429)" fill="white"/>
<ellipse cx="105.263" cy="4.71429" rx="4.71429" ry="4.21053" transform="rotate(90 105.263 4.71429)" fill="white"/>
<ellipse cx="88.4211" cy="4.71429" rx="4.71429" ry="4.21053" transform="rotate(90 88.4211 4.71429)" fill="white"/>
<ellipse cx="71.579" cy="4.71429" rx="4.71429" ry="4.21053" transform="rotate(90 71.579 4.71429)" fill="white"/>
<ellipse cx="54.7367" cy="4.71429" rx="4.71429" ry="4.21053" transform="rotate(90 54.7367 4.71429)" fill="white"/>
<ellipse cx="37.8947" cy="4.71429" rx="4.71429" ry="4.21053" transform="rotate(90 37.8947 4.71429)" fill="white"/>
<ellipse cx="21.0527" cy="4.71429" rx="4.71429" ry="4.21053" transform="rotate(90 21.0527 4.71429)" fill="white"/>
<ellipse cx="4.21062" cy="4.71429" rx="4.71429" ry="4.21053" transform="rotate(90 4.21062 4.71429)" fill="white"/>
<ellipse cx="155.789" cy="23.5714" rx="4.71429" ry="4.21053" transform="rotate(90 155.789 23.5714)" fill="white"/>
<ellipse cx="138.947" cy="23.5714" rx="4.71429" ry="4.21053" transform="rotate(90 138.947 23.5714)" fill="white"/>
<ellipse cx="122.105" cy="23.5714" rx="4.71429" ry="4.21053" transform="rotate(90 122.105 23.5714)" fill="white"/>
<ellipse cx="105.263" cy="23.5714" rx="4.71429" ry="4.21053" transform="rotate(90 105.263 23.5714)" fill="white"/>
<ellipse cx="88.4211" cy="23.5714" rx="4.71429" ry="4.21053" transform="rotate(90 88.4211 23.5714)" fill="white"/>
<ellipse cx="71.579" cy="23.5714" rx="4.71429" ry="4.21053" transform="rotate(90 71.579 23.5714)" fill="white"/>
<ellipse cx="54.7367" cy="23.5714" rx="4.71429" ry="4.21053" transform="rotate(90 54.7367 23.5714)" fill="white"/>
<ellipse cx="37.8947" cy="23.5714" rx="4.71429" ry="4.21053" transform="rotate(90 37.8947 23.5714)" fill="white"/>
<ellipse cx="21.0527" cy="23.5714" rx="4.71429" ry="4.21053" transform="rotate(90 21.0527 23.5714)" fill="white"/>
<ellipse cx="4.21062" cy="23.5714" rx="4.71429" ry="4.21053" transform="rotate(90 4.21062 23.5714)" fill="white"/>
<ellipse cx="155.789" cy="42.4286" rx="4.71428" ry="4.21053" transform="rotate(90 155.789 42.4286)" fill="white"/>
<ellipse cx="138.947" cy="42.4286" rx="4.71428" ry="4.21053" transform="rotate(90 138.947 42.4286)" fill="white"/>
<ellipse cx="122.105" cy="42.4286" rx="4.71428" ry="4.21053" transform="rotate(90 122.105 42.4286)" fill="white"/>
<ellipse cx="105.263" cy="42.4286" rx="4.71428" ry="4.21053" transform="rotate(90 105.263 42.4286)" fill="white"/>
<ellipse cx="88.4211" cy="42.4286" rx="4.71428" ry="4.21053" transform="rotate(90 88.4211 42.4286)" fill="white"/>
<ellipse cx="71.579" cy="42.4286" rx="4.71428" ry="4.21053" transform="rotate(90 71.579 42.4286)" fill="white"/>
<ellipse cx="54.7367" cy="42.4286" rx="4.71428" ry="4.21053" transform="rotate(90 54.7367 42.4286)" fill="white"/>
<ellipse cx="37.8947" cy="42.4286" rx="4.71428" ry="4.21053" transform="rotate(90 37.8947 42.4286)" fill="white"/>
<ellipse cx="21.0527" cy="42.4286" rx="4.71428" ry="4.21053" transform="rotate(90 21.0527 42.4286)" fill="white"/>
<ellipse cx="4.21062" cy="42.4286" rx="4.71428" ry="4.21053" transform="rotate(90 4.21062 42.4286)" fill="white"/>
<ellipse cx="155.789" cy="61.2857" rx="4.71428" ry="4.21053" transform="rotate(90 155.789 61.2857)" fill="white"/>
<ellipse cx="138.947" cy="61.2857" rx="4.71428" ry="4.21053" transform="rotate(90 138.947 61.2857)" fill="white"/>
<ellipse cx="122.105" cy="61.2857" rx="4.71428" ry="4.21053" transform="rotate(90 122.105 61.2857)" fill="white"/>
<ellipse cx="105.263" cy="61.2857" rx="4.71428" ry="4.21053" transform="rotate(90 105.263 61.2857)" fill="white"/>
<ellipse cx="88.4211" cy="61.2857" rx="4.71428" ry="4.21053" transform="rotate(90 88.4211 61.2857)" fill="white"/>
<ellipse cx="71.579" cy="61.2857" rx="4.71428" ry="4.21053" transform="rotate(90 71.579 61.2857)" fill="white"/>
<ellipse cx="54.7367" cy="61.2857" rx="4.71428" ry="4.21053" transform="rotate(90 54.7367 61.2857)" fill="white"/>
<ellipse cx="37.8947" cy="61.2857" rx="4.71428" ry="4.21053" transform="rotate(90 37.8947 61.2857)" fill="white"/>
<ellipse cx="21.0527" cy="61.2857" rx="4.71428" ry="4.21053" transform="rotate(90 21.0527 61.2857)" fill="white"/>
<ellipse cx="4.21062" cy="61.2857" rx="4.71428" ry="4.21053" transform="rotate(90 4.21062 61.2857)" fill="white"/>
<ellipse cx="155.789" cy="80.1429" rx="4.71428" ry="4.21053" transform="rotate(90 155.789 80.1429)" fill="white"/>
<ellipse cx="138.947" cy="80.1429" rx="4.71428" ry="4.21053" transform="rotate(90 138.947 80.1429)" fill="white"/>
<ellipse cx="122.105" cy="80.1429" rx="4.71428" ry="4.21053" transform="rotate(90 122.105 80.1429)" fill="white"/>
<ellipse cx="105.263" cy="80.1429" rx="4.71428" ry="4.21053" transform="rotate(90 105.263 80.1429)" fill="white"/>
<ellipse cx="88.4211" cy="80.1429" rx="4.71428" ry="4.21053" transform="rotate(90 88.4211 80.1429)" fill="white"/>
<ellipse cx="71.579" cy="80.1429" rx="4.71428" ry="4.21053" transform="rotate(90 71.579 80.1429)" fill="white"/>
<ellipse cx="54.7367" cy="80.1429" rx="4.71428" ry="4.21053" transform="rotate(90 54.7367 80.1429)" fill="white"/>
<ellipse cx="37.8947" cy="80.1429" rx="4.71428" ry="4.21053" transform="rotate(90 37.8947 80.1429)" fill="white"/>
<ellipse cx="21.0527" cy="80.1429" rx="4.71428" ry="4.21053" transform="rotate(90 21.0527 80.1429)" fill="white"/>
<ellipse cx="4.21062" cy="80.1429" rx="4.71428" ry="4.21053" transform="rotate(90 4.21062 80.1429)" fill="white"/>
<ellipse cx="155.789" cy="99" rx="4.71429" ry="4.21053" transform="rotate(90 155.789 99)" fill="white"/>
<ellipse cx="138.947" cy="99" rx="4.71429" ry="4.21053" transform="rotate(90 138.947 99)" fill="white"/>
<ellipse cx="122.105" cy="99" rx="4.71429" ry="4.21053" transform="rotate(90 122.105 99)" fill="white"/>
<ellipse cx="105.263" cy="99" rx="4.71429" ry="4.21053" transform="rotate(90 105.263 99)" fill="white"/>
<ellipse cx="88.4211" cy="99" rx="4.71429" ry="4.21053" transform="rotate(90 88.4211 99)" fill="white"/>
<ellipse cx="71.579" cy="99" rx="4.71429" ry="4.21053" transform="rotate(90 71.579 99)" fill="white"/>
<ellipse cx="54.7367" cy="99" rx="4.71429" ry="4.21053" transform="rotate(90 54.7367 99)" fill="white"/>
<ellipse cx="37.8947" cy="99" rx="4.71429" ry="4.21053" transform="rotate(90 37.8947 99)" fill="white"/>
<ellipse cx="21.0527" cy="99" rx="4.71429" ry="4.21053" transform="rotate(90 21.0527 99)" fill="white"/>
<ellipse cx="4.21062" cy="99" rx="4.71429" ry="4.21053" transform="rotate(90 4.21062 99)" fill="white"/>
<ellipse cx="155.789" cy="117.857" rx="4.71428" ry="4.21053" transform="rotate(90 155.789 117.857)" fill="white"/>
<ellipse cx="138.947" cy="117.857" rx="4.71428" ry="4.21053" transform="rotate(90 138.947 117.857)" fill="white"/>
<ellipse cx="122.105" cy="117.857" rx="4.71428" ry="4.21053" transform="rotate(90 122.105 117.857)" fill="white"/>
<ellipse cx="105.263" cy="117.857" rx="4.71428" ry="4.21053" transform="rotate(90 105.263 117.857)" fill="white"/>
<ellipse cx="88.4211" cy="117.857" rx="4.71428" ry="4.21053" transform="rotate(90 88.4211 117.857)" fill="white"/>
<ellipse cx="71.579" cy="117.857" rx="4.71428" ry="4.21053" transform="rotate(90 71.579 117.857)" fill="white"/>
<ellipse cx="54.7367" cy="117.857" rx="4.71428" ry="4.21053" transform="rotate(90 54.7367 117.857)" fill="white"/>
<ellipse cx="37.8947" cy="117.857" rx="4.71428" ry="4.21053" transform="rotate(90 37.8947 117.857)" fill="white"/>
<ellipse cx="21.0527" cy="117.857" rx="4.71428" ry="4.21053" transform="rotate(90 21.0527 117.857)" fill="white"/>
<ellipse cx="4.21062" cy="117.857" rx="4.71428" ry="4.21053" transform="rotate(90 4.21062 117.857)" fill="white"/>
<ellipse cx="155.789" cy="136.714" rx="4.71429" ry="4.21053" transform="rotate(90 155.789 136.714)" fill="white"/>
<ellipse cx="138.947" cy="136.714" rx="4.71429" ry="4.21053" transform="rotate(90 138.947 136.714)" fill="white"/>
<ellipse cx="122.105" cy="136.714" rx="4.71429" ry="4.21053" transform="rotate(90 122.105 136.714)" fill="white"/>
<ellipse cx="105.263" cy="136.714" rx="4.71429" ry="4.21053" transform="rotate(90 105.263 136.714)" fill="white"/>
<ellipse cx="88.4211" cy="136.714" rx="4.71429" ry="4.21053" transform="rotate(90 88.4211 136.714)" fill="white"/>
<ellipse cx="71.579" cy="136.714" rx="4.71429" ry="4.21053" transform="rotate(90 71.579 136.714)" fill="white"/>
<ellipse cx="54.7367" cy="136.714" rx="4.71429" ry="4.21053" transform="rotate(90 54.7367 136.714)" fill="white"/>
<ellipse cx="37.8947" cy="136.714" rx="4.71429" ry="4.21053" transform="rotate(90 37.8947 136.714)" fill="white"/>
<ellipse cx="21.0527" cy="136.714" rx="4.71429" ry="4.21053" transform="rotate(90 21.0527 136.714)" fill="white"/>
<ellipse cx="4.21062" cy="136.714" rx="4.71429" ry="4.21053" transform="rotate(90 4.21062 136.714)" fill="white"/>
<ellipse cx="155.789" cy="155.571" rx="4.71429" ry="4.21053" transform="rotate(90 155.789 155.571)" fill="white"/>
<ellipse cx="138.947" cy="155.571" rx="4.71429" ry="4.21053" transform="rotate(90 138.947 155.571)" fill="white"/>
<ellipse cx="122.105" cy="155.571" rx="4.71429" ry="4.21053" transform="rotate(90 122.105 155.571)" fill="white"/>
<ellipse cx="105.263" cy="155.571" rx="4.71429" ry="4.21053" transform="rotate(90 105.263 155.571)" fill="white"/>
<ellipse cx="88.4211" cy="155.571" rx="4.71429" ry="4.21053" transform="rotate(90 88.4211 155.571)" fill="white"/>
<ellipse cx="71.579" cy="155.571" rx="4.71429" ry="4.21053" transform="rotate(90 71.579 155.571)" fill="white"/>
<ellipse cx="54.7367" cy="155.571" rx="4.71429" ry="4.21053" transform="rotate(90 54.7367 155.571)" fill="white"/>
<ellipse cx="37.8947" cy="155.571" rx="4.71429" ry="4.21053" transform="rotate(90 37.8947 155.571)" fill="white"/>
<ellipse cx="21.0527" cy="155.571" rx="4.71429" ry="4.21053" transform="rotate(90 21.0527 155.571)" fill="white"/>
<ellipse cx="4.21062" cy="155.571" rx="4.71429" ry="4.21053" transform="rotate(90 4.21062 155.571)" fill="white"/>
<ellipse cx="155.789" cy="174.429" rx="4.71429" ry="4.21053" transform="rotate(90 155.789 174.429)" fill="white"/>
<ellipse cx="138.947" cy="174.429" rx="4.71429" ry="4.21053" transform="rotate(90 138.947 174.429)" fill="white"/>
<ellipse cx="122.105" cy="174.429" rx="4.71429" ry="4.21053" transform="rotate(90 122.105 174.429)" fill="white"/>
<ellipse cx="105.263" cy="174.429" rx="4.71429" ry="4.21053" transform="rotate(90 105.263 174.429)" fill="white"/>
<ellipse cx="88.4211" cy="174.429" rx="4.71429" ry="4.21053" transform="rotate(90 88.4211 174.429)" fill="white"/>
<ellipse cx="71.579" cy="174.429" rx="4.71429" ry="4.21053" transform="rotate(90 71.579 174.429)" fill="white"/>
<ellipse cx="54.7367" cy="174.429" rx="4.71429" ry="4.21053" transform="rotate(90 54.7367 174.429)" fill="white"/>
<ellipse cx="37.8947" cy="174.429" rx="4.71429" ry="4.21053" transform="rotate(90 37.8947 174.429)" fill="white"/>
<ellipse cx="21.0527" cy="174.429" rx="4.71429" ry="4.21053" transform="rotate(90 21.0527 174.429)" fill="white"/>
<ellipse cx="4.21062" cy="174.429" rx="4.71429" ry="4.21053" transform="rotate(90 4.21062 174.429)" fill="white"/>
<ellipse cx="155.789" cy="193.286" rx="4.71429" ry="4.21053" transform="rotate(90 155.789 193.286)" fill="white"/>
<ellipse cx="138.947" cy="193.286" rx="4.71429" ry="4.21053" transform="rotate(90 138.947 193.286)" fill="white"/>
<ellipse cx="122.105" cy="193.286" rx="4.71429" ry="4.21053" transform="rotate(90 122.105 193.286)" fill="white"/>
<ellipse cx="105.263" cy="193.286" rx="4.71429" ry="4.21053" transform="rotate(90 105.263 193.286)" fill="white"/>
<ellipse cx="88.4211" cy="193.286" rx="4.71429" ry="4.21053" transform="rotate(90 88.4211 193.286)" fill="white"/>
<ellipse cx="71.579" cy="193.286" rx="4.71429" ry="4.21053" transform="rotate(90 71.579 193.286)" fill="white"/>
<ellipse cx="54.7367" cy="193.286" rx="4.71429" ry="4.21053" transform="rotate(90 54.7367 193.286)" fill="white"/>
<ellipse cx="37.8947" cy="193.286" rx="4.71429" ry="4.21053" transform="rotate(90 37.8947 193.286)" fill="white"/>
<ellipse cx="21.0527" cy="193.286" rx="4.71429" ry="4.21053" transform="rotate(90 21.0527 193.286)" fill="white"/>
<ellipse cx="4.21062" cy="193.286" rx="4.71429" ry="4.21053" transform="rotate(90 4.21062 193.286)" fill="white"/>
<ellipse cx="155.789" cy="212.143" rx="4.71429" ry="4.21053" transform="rotate(90 155.789 212.143)" fill="white"/>
<ellipse cx="138.947" cy="212.143" rx="4.71429" ry="4.21053" transform="rotate(90 138.947 212.143)" fill="white"/>
<ellipse cx="122.105" cy="212.143" rx="4.71429" ry="4.21053" transform="rotate(90 122.105 212.143)" fill="white"/>
<ellipse cx="105.263" cy="212.143" rx="4.71429" ry="4.21053" transform="rotate(90 105.263 212.143)" fill="white"/>
<ellipse cx="88.4211" cy="212.143" rx="4.71429" ry="4.21053" transform="rotate(90 88.4211 212.143)" fill="white"/>
<ellipse cx="71.579" cy="212.143" rx="4.71429" ry="4.21053" transform="rotate(90 71.579 212.143)" fill="white"/>
<ellipse cx="54.7367" cy="212.143" rx="4.71429" ry="4.21053" transform="rotate(90 54.7367 212.143)" fill="white"/>
<ellipse cx="37.8947" cy="212.143" rx="4.71429" ry="4.21053" transform="rotate(90 37.8947 212.143)" fill="white"/>
<ellipse cx="21.0527" cy="212.143" rx="4.71429" ry="4.21053" transform="rotate(90 21.0527 212.143)" fill="white"/>
<ellipse cx="4.21062" cy="212.143" rx="4.71429" ry="4.21053" transform="rotate(90 4.21062 212.143)" fill="white"/>
<ellipse cx="155.789" cy="231" rx="4.71428" ry="4.21053" transform="rotate(90 155.789 231)" fill="white"/>
<ellipse cx="138.947" cy="231" rx="4.71428" ry="4.21053" transform="rotate(90 138.947 231)" fill="white"/>
<ellipse cx="122.105" cy="231" rx="4.71428" ry="4.21053" transform="rotate(90 122.105 231)" fill="white"/>
<ellipse cx="105.263" cy="231" rx="4.71428" ry="4.21053" transform="rotate(90 105.263 231)" fill="white"/>
<ellipse cx="88.4211" cy="231" rx="4.71428" ry="4.21053" transform="rotate(90 88.4211 231)" fill="white"/>
<ellipse cx="71.579" cy="231" rx="4.71428" ry="4.21053" transform="rotate(90 71.579 231)" fill="white"/>
<ellipse cx="54.7367" cy="231" rx="4.71428" ry="4.21053" transform="rotate(90 54.7367 231)" fill="white"/>
<ellipse cx="37.8947" cy="231" rx="4.71428" ry="4.21053" transform="rotate(90 37.8947 231)" fill="white"/>
<ellipse cx="21.0527" cy="231" rx="4.71428" ry="4.21053" transform="rotate(90 21.0527 231)" fill="white"/>
<ellipse cx="4.21062" cy="231" rx="4.71428" ry="4.21053" transform="rotate(90 4.21062 231)" fill="white"/>
<ellipse cx="155.789" cy="249.857" rx="4.71429" ry="4.21053" transform="rotate(90 155.789 249.857)" fill="white"/>
<ellipse cx="138.947" cy="249.857" rx="4.71429" ry="4.21053" transform="rotate(90 138.947 249.857)" fill="white"/>
<ellipse cx="122.105" cy="249.857" rx="4.71429" ry="4.21053" transform="rotate(90 122.105 249.857)" fill="white"/>
<ellipse cx="105.263" cy="249.857" rx="4.71429" ry="4.21053" transform="rotate(90 105.263 249.857)" fill="white"/>
<ellipse cx="88.4211" cy="249.857" rx="4.71429" ry="4.21053" transform="rotate(90 88.4211 249.857)" fill="white"/>
<ellipse cx="71.579" cy="249.857" rx="4.71429" ry="4.21053" transform="rotate(90 71.579 249.857)" fill="white"/>
<ellipse cx="54.7367" cy="249.857" rx="4.71429" ry="4.21053" transform="rotate(90 54.7367 249.857)" fill="white"/>
<ellipse cx="37.8947" cy="249.857" rx="4.71429" ry="4.21053" transform="rotate(90 37.8947 249.857)" fill="white"/>
<ellipse cx="21.0527" cy="249.857" rx="4.71429" ry="4.21053" transform="rotate(90 21.0527 249.857)" fill="white"/>
<ellipse cx="4.21062" cy="249.857" rx="4.71429" ry="4.21053" transform="rotate(90 4.21062 249.857)" fill="white"/>
<ellipse cx="155.789" cy="268.714" rx="4.71428" ry="4.21053" transform="rotate(90 155.789 268.714)" fill="white"/>
<ellipse cx="138.947" cy="268.714" rx="4.71428" ry="4.21053" transform="rotate(90 138.947 268.714)" fill="white"/>
<ellipse cx="122.105" cy="268.714" rx="4.71428" ry="4.21053" transform="rotate(90 122.105 268.714)" fill="white"/>
<ellipse cx="105.263" cy="268.714" rx="4.71428" ry="4.21053" transform="rotate(90 105.263 268.714)" fill="white"/>
<ellipse cx="88.4211" cy="268.714" rx="4.71428" ry="4.21053" transform="rotate(90 88.4211 268.714)" fill="white"/>
<ellipse cx="71.579" cy="268.714" rx="4.71428" ry="4.21053" transform="rotate(90 71.579 268.714)" fill="white"/>
<ellipse cx="54.7367" cy="268.714" rx="4.71428" ry="4.21053" transform="rotate(90 54.7367 268.714)" fill="white"/>
<ellipse cx="37.8947" cy="268.714" rx="4.71428" ry="4.21053" transform="rotate(90 37.8947 268.714)" fill="white"/>
<ellipse cx="21.0527" cy="268.714" rx="4.71428" ry="4.21053" transform="rotate(90 21.0527 268.714)" fill="white"/>
<ellipse cx="4.21062" cy="268.714" rx="4.71428" ry="4.21053" transform="rotate(90 4.21062 268.714)" fill="white"/>
<ellipse cx="155.789" cy="287.571" rx="4.71428" ry="4.21053" transform="rotate(90 155.789 287.571)" fill="white"/>
<ellipse cx="138.947" cy="287.571" rx="4.71428" ry="4.21053" transform="rotate(90 138.947 287.571)" fill="white"/>
<ellipse cx="122.105" cy="287.571" rx="4.71428" ry="4.21053" transform="rotate(90 122.105 287.571)" fill="white"/>
<ellipse cx="105.263" cy="287.571" rx="4.71428" ry="4.21053" transform="rotate(90 105.263 287.571)" fill="white"/>
<ellipse cx="88.4211" cy="287.571" rx="4.71428" ry="4.21053" transform="rotate(90 88.4211 287.571)" fill="white"/>
<ellipse cx="71.579" cy="287.571" rx="4.71428" ry="4.21053" transform="rotate(90 71.579 287.571)" fill="white"/>
<ellipse cx="54.7367" cy="287.571" rx="4.71428" ry="4.21053" transform="rotate(90 54.7367 287.571)" fill="white"/>
<ellipse cx="37.8947" cy="287.571" rx="4.71428" ry="4.21053" transform="rotate(90 37.8947 287.571)" fill="white"/>
<ellipse cx="21.0527" cy="287.571" rx="4.71428" ry="4.21053" transform="rotate(90 21.0527 287.571)" fill="white"/>
<ellipse cx="4.21062" cy="287.571" rx="4.71428" ry="4.21053" transform="rotate(90 4.21062 287.571)" fill="white"/>
<ellipse cx="155.789" cy="306.429" rx="4.71428" ry="4.21053" transform="rotate(90 155.789 306.429)" fill="white"/>
<ellipse cx="138.947" cy="306.428" rx="4.71428" ry="4.21053" transform="rotate(90 138.947 306.428)" fill="white"/>
<ellipse cx="122.105" cy="306.428" rx="4.71428" ry="4.21053" transform="rotate(90 122.105 306.428)" fill="white"/>
<ellipse cx="105.263" cy="306.428" rx="4.71428" ry="4.21053" transform="rotate(90 105.263 306.428)" fill="white"/>
<ellipse cx="88.4211" cy="306.428" rx="4.71428" ry="4.21053" transform="rotate(90 88.4211 306.428)" fill="white"/>
<ellipse cx="71.579" cy="306.428" rx="4.71428" ry="4.21053" transform="rotate(90 71.579 306.428)" fill="white"/>
<ellipse cx="54.7367" cy="306.428" rx="4.71428" ry="4.21053" transform="rotate(90 54.7367 306.428)" fill="white"/>
<ellipse cx="37.8947" cy="306.428" rx="4.71428" ry="4.21053" transform="rotate(90 37.8947 306.428)" fill="white"/>
<ellipse cx="21.0527" cy="306.428" rx="4.71428" ry="4.21053" transform="rotate(90 21.0527 306.428)" fill="white"/>
<ellipse cx="4.21062" cy="306.428" rx="4.71428" ry="4.21053" transform="rotate(90 4.21062 306.428)" fill="white"/>
<ellipse cx="155.789" cy="325.286" rx="4.71428" ry="4.21053" transform="rotate(90 155.789 325.286)" fill="white"/>
<ellipse cx="138.947" cy="325.286" rx="4.71428" ry="4.21053" transform="rotate(90 138.947 325.286)" fill="white"/>
<ellipse cx="122.105" cy="325.286" rx="4.71428" ry="4.21053" transform="rotate(90 122.105 325.286)" fill="white"/>
<ellipse cx="105.263" cy="325.286" rx="4.71428" ry="4.21053" transform="rotate(90 105.263 325.286)" fill="white"/>
<ellipse cx="88.4211" cy="325.286" rx="4.71428" ry="4.21053" transform="rotate(90 88.4211 325.286)" fill="white"/>
<ellipse cx="71.579" cy="325.286" rx="4.71428" ry="4.21053" transform="rotate(90 71.579 325.286)" fill="white"/>
<ellipse cx="54.7367" cy="325.286" rx="4.71428" ry="4.21053" transform="rotate(90 54.7367 325.286)" fill="white"/>
<ellipse cx="37.8947" cy="325.286" rx="4.71428" ry="4.21053" transform="rotate(90 37.8947 325.286)" fill="white"/>
<ellipse cx="21.0527" cy="325.286" rx="4.71428" ry="4.21053" transform="rotate(90 21.0527 325.286)" fill="white"/>
<ellipse cx="4.21062" cy="325.286" rx="4.71428" ry="4.21053" transform="rotate(90 4.21062 325.286)" fill="white"/>
</g>
</svg>
