<svg width="223" height="212" viewBox="0 0 223 212" fill="currentColor" xmlns="http://www.w3.org/2000/svg">
<path d="M48.0195 212C45.8195 212 44.4195 211 43.8195 209L0.619532 61.7L0.319532 60.5C0.319532 58.5 1.41953 57.5 3.61953 57.5H39.9195C42.1195 57.5 43.5195 58.5 44.1195 60.5L65.7195 151.1C65.9195 151.7 66.2195 152 66.6195 152C67.0195 152 67.3195 151.7 67.5195 151.1L90.0195 60.5C90.6195 58.5 92.0195 57.5 94.2195 57.5H125.72C127.92 57.5 129.32 58.5 129.92 60.5L153.62 151.4C153.82 152 154.12 152.3 154.52 152.3C154.92 152.3 155.22 152 155.42 151.4L178.82 60.5C179.42 58.5 180.82 57.5 183.02 57.5L219.02 58.1C220.22 58.1 221.02 58.5 221.42 59.3C222.02 59.9 222.22 60.8 222.02 62L178.22 209C177.62 211 176.32 212 174.32 212H138.02C135.82 212 134.42 211 133.82 209L110.72 128.6C110.52 128 110.22 127.7 109.82 127.7C109.42 127.7 109.12 128 108.92 128.6L88.5195 209C87.9195 211 86.5195 212 84.3195 212H48.0195Z" fill="white" fill-opacity="0.2"/>
</svg>
